<svg width="80" height="64" viewBox="0 0 80 64" fill="none" xmlns="http://www.w3.org/2000/svg">
<path d="M76 36H13.6564L34.8283 57.172C36.3903 58.734 36.3903 61.266 34.8283 62.828C33.2663 64.39 30.7333 64.39 29.1713 62.828L1.1715 34.828C-0.390494 33.266 -0.390494 30.733 1.1715 29.172L29.1713 1.172C29.9523 0.391001 30.9763 0 32.0003 0C33.0233 0 34.0473 0.391001 34.8283 1.172C36.3903 2.734 36.3903 5.267 34.8283 6.828L13.6564 28H76C78.209 28 80 29.791 80 32C80 34.209 78.209 36 76 36Z" fill="white"/>
</svg>
